<?xml version="1.0" encoding="utf-8"?>
<!-- Generator: Adobe Illustrator 17.0.0, SVG Export Plug-In . SVG Version: 6.00 Build 0)  -->
<!DOCTYPE svg PUBLIC "-//W3C//DTD SVG 1.1//EN" "http://www.w3.org/Graphics/SVG/1.1/DTD/svg11.dtd">
<svg version="1.1" id="svg-wordmark" xmlns="http://www.w3.org/2000/svg" xmlns:xlink="http://www.w3.org/1999/xlink" x="0px"
	 y="0px" width="130px" height="190px" viewBox="415 184.996 130 190" enable-background="new 415 184.996 130 190"
	 xml:space="preserve">
<g>
	<path fill="#F14745" d="M474.057,185.358l-56.949,28.386c-1.064,0.532-1.597,1.419-1.597,2.484v125.607
		c0,1.064,0.532,1.952,1.597,2.484l56.949,28.386c1.774,0.887,4.08-0.355,4.08-2.484V187.842
		C477.96,185.713,475.831,184.294,474.057,185.358z"/>
	<path fill="#F14745" d="M542.892,278.322l-56.949-28.386c-1.774-0.887-4.08,0.355-4.08,2.484v117.979
		c0.177,1.952,2.306,3.193,4.08,2.306l56.949-28.386c0.887-0.532,1.597-1.419,1.597-2.484v-61.029
		C544.489,279.741,543.957,278.854,542.892,278.322z"/>
</g>
</svg>
