<?xml version="1.0" encoding="utf-8"?>
<!-- Generator: Adobe Illustrator 17.0.0, SVG Export Plug-In . SVG Version: 6.00 Build 0)  -->
<!DOCTYPE svg PUBLIC "-//W3C//DTD SVG 1.1//EN" "http://www.w3.org/Graphics/SVG/1.1/DTD/svg11.dtd">
<svg version="1.1" id="svg-wordmark" xmlns="http://www.w3.org/2000/svg" xmlns:xlink="http://www.w3.org/1999/xlink" x="0px"
	 y="0px" width="960px" height="191.184px" viewBox="0 184.404 960 191.184" enable-background="new 0 184.404 960 191.184"
	 xml:space="preserve">
<path fill="#102635" d="M59.071,184.77L1.611,213.41C0.537,213.947,0,214.842,0,215.916v126.735c0,1.074,0.537,1.969,1.611,2.506l57.46,28.641
	c1.79,0.895,4.117-0.358,4.117-2.506V187.276C63.01,185.128,60.861,183.696,59.071,184.77z M71.065,373.798l57.46-28.641
	c0.895-0.537,1.611-1.432,1.611-2.506v-61.577c0-1.074-0.537-1.969-1.611-2.506l-57.46-28.641c-1.79-0.895-4.117,0.358-4.117,2.506
	v119.038C67.127,373.44,69.275,374.693,71.065,373.798z M232.169,246.705c19.332,0,29.715,7.16,29.715,25.24
	c0,11.814-3.759,17.542-11.456,21.839c8.413,3.222,13.962,9.308,13.962,22.555c0,19.869-11.993,27.567-30.968,27.567h-38.307
	v-97.199H232.169z M211.046,260.31v27.925h20.943c9.666,0,13.962-4.833,13.962-14.32c0-9.308-4.833-13.425-14.499-13.425h-20.406
	L211.046,260.31z M211.046,301.48v28.82h21.481c9.845,0,15.573-3.043,15.573-14.857c0-11.098-8.234-14.141-15.931-14.141h-21.122
	V301.48z M280.321,273.019h15.394v8.592c0,0,11.993-7.876,24.166-10.024v15.394c-12.888,2.506-23.987,11.277-23.987,11.277v45.825
	H280.5v-71.065H280.321z M654.082,273.019h15.394v8.592c0,0,11.993-7.876,24.166-10.024v15.394
	c-12.888,2.506-23.987,11.277-23.987,11.277v45.825h-15.394v-71.065H654.082z M390.945,308.104c0,23.629-7.16,37.412-31.684,37.412
	c-24.345,0-31.684-13.962-31.684-37.412c0-23.092,7.876-36.696,31.684-36.696S390.945,285.012,390.945,308.104z M375.372,308.104
	c0-16.468-3.58-23.629-16.11-23.629s-16.11,7.16-16.11,23.629c0,16.468,2.864,24.345,16.11,24.345S375.372,324.572,375.372,308.104z
	 M415.827,273.019l11.277,57.818h2.864l13.425-56.386h15.931l13.425,56.386h2.864l11.098-57.818h15.394l-15.036,71.065h-24.524
	l-11.098-48.689l-11.098,48.689h-24.524l-15.036-71.065C400.791,273.019,415.827,273.019,415.827,273.019z M564.58,287.697
	c0,0-16.826-2.327-25.24-2.327c-8.592,0-12.351,1.969-12.351,7.876c0,4.654,3.043,5.907,16.826,8.413
	c17.005,3.043,23.092,7.16,23.092,21.481c0,16.647-10.561,22.555-28.104,22.555c-9.845,0-26.314-3.043-26.314-3.043l0.537-12.888
	c0,0,17.005,2.327,24.345,2.327c10.203,0,14.141-2.148,14.141-8.413c0-5.012-2.327-6.444-16.468-8.771
	c-15.573-2.506-23.629-5.907-23.629-20.944c0-16.11,12.53-22.018,26.493-22.018c10.382,0,26.672,3.043,26.672,3.043L564.58,287.697
	L564.58,287.697z M636.539,330.837l0.358,11.456c0,0-16.11,3.222-28.641,3.222c-21.302,0-29.536-11.277-29.536-36.338
	c0-25.956,11.277-37.77,30.789-37.77c19.87,0,29.894,10.382,29.894,32.579l-1.074,11.098h-44.035
	c0.179,11.277,4.475,17.005,16.11,17.005C621.503,332.09,636.539,330.837,636.539,330.837L636.539,330.837z M624.009,303.092
	c0-14.141-4.296-18.974-14.678-18.974c-10.561,0-15.215,5.191-15.394,18.974H624.009L624.009,303.092z M752.713,281.611
	c0,0-15.215-2.327-24.524-2.327c-8.771,0-16.826,2.327-16.826,11.993c0,7.339,3.58,9.487,18.974,11.993
	c18.258,3.043,25.061,6.265,25.061,19.869c0,16.647-10.382,22.018-27.388,22.018c-8.592,0-24.345-2.506-24.345-2.506l0.537-7.518
	c0,0,15.931,2.327,23.091,2.327c12.172,0,19.332-2.864,19.332-13.962c0-8.592-4.296-10.382-20.227-12.709
	c-16.289-2.506-23.807-5.549-23.807-19.332c0-15.394,12.709-20.048,25.061-20.048c10.74,0,25.061,2.327,25.061,2.327V281.611
	L752.713,281.611z M773.299,273.019l18.795,63.547h5.191l18.974-63.547h8.592L794.6,375.588h-8.592l9.129-31.684h-9.845
	l-20.943-71.065h8.95V273.019z M839.351,344.084v-71.065h8.413v5.191c0,0,11.993-6.623,23.091-6.623
	c19.511,0,23.808,9.129,23.808,35.085v37.412h-8.592V307.03c0-20.943-2.327-27.925-16.468-27.925
	c-11.098,0-21.839,5.907-21.839,5.907v58.713h-8.413L839.351,344.084z M959.821,273.377l-0.358,7.16c0,0-11.277-1.432-16.647-1.432
	c-17.005,0-22.018,7.518-22.018,27.925c0,22.376,3.401,30.61,22.018,30.61c5.37,0,16.826-1.253,16.826-1.253l0.358,7.16
	c0,0-12.709,1.79-18.795,1.79c-23.092,0-29.178-10.203-29.178-38.128c0-25.956,8.234-35.622,29.357-35.622
	C947.47,271.587,959.821,273.377,959.821,273.377L959.821,273.377z"/>
</svg>
